<?xml version="1.0" encoding="UTF-8" standalone="no"?>
<!-- Generator: Adobe Illustrator 16.0.0, SVG Export Plug-In . SVG Version: 6.00 Build 0)  -->

<svg
   xmlns:dc="http://purl.org/dc/elements/1.1/"
   xmlns:cc="http://creativecommons.org/ns#"
   xmlns:rdf="http://www.w3.org/1999/02/22-rdf-syntax-ns#"
   xmlns:svg="http://www.w3.org/2000/svg"
   xmlns="http://www.w3.org/2000/svg"
   xmlns:sodipodi="http://sodipodi.sourceforge.net/DTD/sodipodi-0.dtd"
   xmlns:inkscape="http://www.inkscape.org/namespaces/inkscape"
   version="1.1"
   id="Capa_1"
   x="0px"
   y="0px"
   width="197.297"
   height="86.917999"
   viewBox="0 0 197.297 86.918"
   enable-background="new 0 0 197.297 68.918"
   xml:space="preserve"
   sodipodi:docname="logo.svg"
   inkscape:version="0.92.1 r15371"><metadata
     id="metadata33"><rdf:RDF><cc:Work
         rdf:about=""><dc:format>image/svg+xml</dc:format><dc:type
           rdf:resource="http://purl.org/dc/dcmitype/StillImage" /><dc:title></dc:title></cc:Work></rdf:RDF></metadata><defs
     id="defs31" /><sodipodi:namedview
     pagecolor="#ffffff"
     bordercolor="#666666"
     borderopacity="1"
     objecttolerance="10"
     gridtolerance="10"
     guidetolerance="10"
     inkscape:pageopacity="0"
     inkscape:pageshadow="2"
     inkscape:window-width="1366"
     inkscape:window-height="699"
     id="namedview29"
     showgrid="false"
     inkscape:zoom="2.1788061"
     inkscape:cx="52.456608"
     inkscape:cy="11.131812"
     inkscape:window-x="0"
     inkscape:window-y="0"
     inkscape:window-maximized="1"
     inkscape:current-layer="Capa_1" /><g
     id="g14"
     style="fill:#800080"
     transform="translate(1.2981546,-0.17414826)"><path
       d="m 131.104,32.833 c -8.912,0 -16.139,7.224 -16.139,16.136 0,8.913 7.227,16.139 16.139,16.139 8.912,0 16.137,-7.226 16.137,-16.139 0,-8.912 -7.225,-16.136 -16.137,-16.136 z m 0,25.306 c -5.064,0 -9.17,-4.105 -9.17,-9.17 0,-5.063 4.105,-9.168 9.17,-9.168 5.065,0 9.168,4.105 9.168,9.168 0,5.065 -4.104,9.17 -9.168,9.17 z"
       id="path2"
       style="clip-rule:evenodd;fill:#800080;fill-rule:evenodd"
       inkscape:connector-curvature="0" /><path
       d="m 176.583,32.833 c -8.912,0 -16.139,7.224 -16.139,16.136 0,8.913 7.227,16.139 16.139,16.139 8.912,0 16.137,-7.226 16.137,-16.139 -0.001,-8.912 -7.225,-16.136 -16.137,-16.136 z m 0,25.306 c -5.064,0 -9.168,-4.105 -9.168,-9.17 0,-5.063 4.104,-9.168 9.168,-9.168 5.063,0 9.168,4.105 9.168,9.168 -0.001,5.065 -4.106,9.17 -9.168,9.17 z"
       id="path4"
       style="clip-rule:evenodd;fill:#800080;fill-rule:evenodd"
       inkscape:connector-curvature="0" /><path
       d="M 13.564,36.217 24.905,52.44 V 36.043 c 0,-1.22 0.265,-2.137 0.795,-2.746 0.529,-0.611 1.243,-0.918 2.144,-0.918 0.929,0 2.749,0.307 3.285,0.918 0.537,0.609 0.806,1.526 0.806,2.746 v 24.85 c 0,2.772 -1.16,4.159 -3.482,4.159 -0.581,0 -1.103,-0.083 -1.566,-0.249 -0.465,-0.164 -0.9,-0.428 -1.307,-0.785 C 25.174,63.659 24.796,63.239 24.448,62.756 24.1,62.275 23.751,61.783 23.403,61.279 L 11.797,45.047 v 16.342 c 0,1.205 -0.283,2.118 -0.85,2.736 -0.566,0.617 -1.291,0.927 -2.176,0.927 -0.915,0 -2.164,-0.313 -2.716,-0.938 C 5.502,63.488 5.228,62.58 5.228,61.388 V 37.014 c 0,-1.034 0.115,-1.846 0.348,-2.436 0.275,-0.646 0.733,-1.174 1.371,-1.584 0.639,-0.409 1.328,-0.615 2.068,-0.615 0.58,0 1.076,0.094 1.49,0.281 0.414,0.187 0.775,0.439 1.089,0.754 0.312,0.317 0.632,0.727 0.958,1.229 0.327,0.504 0.665,1.027 1.012,1.574 z"
       id="path6"
       style="fill:#800080"
       inkscape:connector-curvature="0" /><path
       d="M 49.019,61.151 V 36.26 c 0,-1.293 0.328,-2.264 0.985,-2.91 0.656,-0.646 1.504,-0.971 2.546,-0.971 1.073,0 1.941,0.32 2.606,0.961 0.664,0.639 0.996,1.613 0.996,2.92 v 24.891 c 0,1.309 -0.332,2.284 -0.996,2.932 -0.665,0.646 -1.533,0.97 -2.606,0.97 -1.025,0 -1.87,-0.327 -2.534,-0.981 -0.664,-0.654 -0.997,-1.628 -0.997,-2.921 z"
       id="path8"
       style="fill:#800080"
       inkscape:connector-curvature="0" /><path
       d="m 77.231,34.387 h 8.591 c 2.233,0 4.15,0.191 5.748,0.574 1.599,0.384 3.049,1.104 4.352,2.158 3.388,2.685 5.083,6.769 5.083,12.248 0,1.809 -0.17,3.459 -0.51,4.953 -0.341,1.492 -0.866,2.84 -1.576,4.038 -0.711,1.198 -1.621,2.271 -2.73,3.216 -0.873,0.726 -1.827,1.308 -2.863,1.746 -1.036,0.439 -2.15,0.747 -3.341,0.925 -1.191,0.179 -2.534,0.268 -4.028,0.268 h -8.591 c -1.198,0 -2.101,-0.167 -2.708,-0.503 -0.607,-0.338 -1.002,-0.809 -1.187,-1.419 -0.187,-0.609 -0.278,-1.4 -0.278,-2.373 V 38.127 c 0,-1.316 0.318,-2.268 0.955,-2.857 0.634,-0.589 1.663,-0.883 3.083,-0.883 z m 2.552,5.928 v 17.801 h 5.361 c 0.953,0 1.701,-0.023 2.242,-0.072 0.541,-0.047 1.101,-0.166 1.681,-0.357 0.579,-0.19 1.081,-0.459 1.507,-0.805 1.92,-1.502 2.879,-4.09 2.879,-7.764 0,-2.588 -0.422,-4.526 -1.266,-5.814 -0.844,-1.288 -1.883,-2.107 -3.12,-2.459 -1.237,-0.352 -3.745,-0.529 -5.496,-0.529 h -3.788 z"
       id="path10"
       style="fill:#800080"
       inkscape:connector-curvature="0" /><path
       d="m 192.362,30.718 c -0.135,1.088 -3.805,3.127 -5.438,-0.271 -4.381,-8.986 -13.27,-6.9 -19.131,-8.478 -9.875,-15.718 -47.609,-20.748 -46.795,8.884 -1.359,2.176 -5.029,2.039 -5.572,0.271 -2.176,-34.797 39.283,-35.748 56.969,-15.9 22.277,1.901 20.104,14.679 19.967,15.494 z"
       id="path12"
       style="clip-rule:evenodd;fill:#800080;fill-rule:evenodd"
       inkscape:connector-curvature="0" /></g><g
     id="g16"
     transform="translate(0,18.000016)" /><g
     id="g18"
     transform="translate(0,18.000016)" /><g
     id="g20"
     transform="translate(0,18.000016)" /><g
     id="g22"
     transform="translate(0,18.000016)" /><g
     id="g24"
     transform="translate(0,18.000016)" /><g
     id="g26"
     transform="translate(0,18.000016)" /><text
     xml:space="preserve"
     style="font-style:normal;font-weight:normal;font-size:26.89126205px;line-height:125%;font-family:sans-serif;letter-spacing:0px;word-spacing:0px;fill:#000000;fill-opacity:1;stroke:none;stroke-width:0.67228156px;stroke-linecap:butt;stroke-linejoin:miter;stroke-opacity:1"
     x="5.629364"
     y="83.496078"
     id="text4497"
     transform="scale(1.0464702,0.95559339)"><tspan
       sodipodi:role="line"
       id="tspan4495"
       x="5.629364"
       y="83.496078"
       style="font-size:16.13475609px;fill:#800080;stroke-width:0.67228156px">BUSINESS SOLUTIONS</tspan></text>
</svg>